{
    "asset": {
        "version": "2.0",
        "generator": "Open Asset Import Library (assimp v5.0.5eb040c7)"
    },
    "accessors": [
        {
            "bufferView": 0,
            "byteOffset": 0,
            "componentType": 5126,
            "count": 153374,
            "type": "VEC3",
            "max": [
                4.583356857299805,
                4.1149001121521,
                22.685518264770509
            ],
            "min": [
                -3.0556230545043947,
                -4.796977996826172,
                15.091950416564942
            ]
        },
        {
            "bufferView": 1,
            "byteOffset": 0,
            "componentType": 5126,
            "count": 153374,
            "type": "VEC3",
            "max": [
                0.9999894499778748,
                0.9999209046363831,
                0.9999992251396179
            ],
            "min": [
                -0.9999492168426514,
                -0.9999587535858154,
                -0.9999818801879883
            ]
        },
        {
            "bufferView": 2,
            "byteOffset": 0,
            "componentType": 5126,
            "count": 153374,
            "type": "VEC2",
            "max": [
                0.9997820258140564,
                0.9996910095214844
            ],
            "min": [
                0.00020199999562464654,
                0.0002009868621826172
            ]
        },
        {
            "bufferView": 3,
            "byteOffset": 0,
            "componentType": 5125,
            "count": 634569,
            "type": "SCALAR",
            "max": [
                153373
            ],
            "min": [
                0
            ]
        }
    ],
    "buffers": [
        {
            "byteLength": 7446244,
            "uri": "result.bin"
        }
    ],
    "bufferViews": [
        {
            "buffer": 0,
            "byteOffset": 0,
            "byteLength": 1840488,
            "target": 34962
        },
        {
            "buffer": 0,
            "byteOffset": 1840488,
            "byteLength": 1840488,
            "target": 34962
        },
        {
            "buffer": 0,
            "byteOffset": 3680976,
            "byteLength": 1226992,
            "target": 34962
        },
        {
            "buffer": 0,
            "byteOffset": 4907968,
            "byteLength": 2538276,
            "target": 34963
        }
    ],
    "materials": [
        {
            "name": "DefaultMaterial",
            "pbrMetallicRoughness": {
                "baseColorFactor": [
                    0.6000000238418579,
                    0.6000000238418579,
                    0.6000000238418579,
                    1.0
                ],
                "metallicFactor": 0.0
            }
        },
        {
            "name": "Kitil",
            "pbrMetallicRoughness": {
                "baseColorFactor": [
                    0.6000000238418579,
                    0.6000000238418579,
                    0.6000000238418579,
                    1.0
                ],
                "metallicFactor": 0.0
            }
        }
    ],
    "meshes": [
        {
            "name": "Group_Global",
            "primitives": [
                {
                    "mode": 4,
                    "material": 1,
                    "indices": 3,
                    "attributes": {
                        "POSITION": 0,
                        "NORMAL": 1,
                        "TEXCOORD_0": 2
                    }
                }
            ]
        }
    ],
    "nodes": [
        {
            "name": "input.obj",
            "children": [
                1
            ]
        },
        {
            "name": "Group_Global",
            "mesh": 0
        }
    ],
    "scenes": [
        {
            "nodes": [
                0
            ]
        }
    ],
    "scene": 0
}